<svg xmlns="http://www.w3.org/2000/svg" fill="none" viewBox="0 0 66 66"><path fill="#F2B137" d="M33 2c17.12 0 31 13.88 31 31h2C66 14.775 51.225 0 33 0v2ZM2 33C2 15.88 15.88 2 33 2V0C14.775 0 0 14.775 0 33h2Zm31 31C15.88 64 2 50.12 2 33H0c0 18.225 14.775 33 33 33v-2Zm31-31c0 17.12-13.88 31-31 31v2c18.225 0 33-14.775 33-33h-2ZM33 18.963c-7.752 0-14.037 6.285-14.037 14.037h2c0-6.648 5.39-12.037 12.037-12.037v-2ZM47.037 33c0-7.752-6.285-14.037-14.037-14.037v2c6.648 0 12.037 5.39 12.037 12.037h2ZM33 47.037c7.752 0 14.037-6.285 14.037-14.037h-2c0 6.648-5.39 12.037-12.037 12.037v2ZM18.963 33c0 7.752 6.285 14.037 14.037 14.037v-2c-6.648 0-12.037-5.39-12.037-12.037h-2Z"/></svg>