<svg xmlns="http://www.w3.org/2000/svg" fill="none" viewBox="0 0 16 16">
    <path fill="#1F3641"
        d="M15.326.308H13.88a.366.366 0 0 0-.366.383l.122 2.527A7.546 7.546 0 0 0 7.873.552C3.704.552.305 3.956.308 8.128a7.568 7.568 0 0 0 7.565 7.564 7.535 7.535 0 0 0 5.07-1.95.367.367 0 0 0 .014-.533l-1.037-1.037a.366.366 0 0 0-.5-.017 5.366 5.366 0 0 1-7.577-.485 5.375 5.375 0 0 1 .484-7.582 5.366 5.366 0 0 1 8.003 1.036l-3.097-.148a.366.366 0 0 0-.384.366V6.79c0 .203.164.367.366.367h6.111a.366.366 0 0 0 .366-.367V.674a.366.366 0 0 0-.366-.366Z" />
</svg>