<svg xmlns="http://www.w3.org/2000/svg" fill="none" viewBox="0 0 64 64"><mask id="a" fill="#fff"><path fill-rule="evenodd" d="M52.972.879a3 3 0 0 0-4.243 0L31.731 17.877 14.733.879a3 3 0 0 0-4.242 0L.879 10.49a3 3 0 0 0 0 4.242L17.877 31.73l-16.998 17a3 3 0 0 0 0 4.243l9.612 9.612a3 3 0 0 0 4.242 0l16.998-16.998L48.73 62.584a3 3 0 0 0 4.243 0l9.612-9.612a3 3 0 0 0 0-4.243L45.586 31.731l16.998-16.998a3 3 0 0 0 0-4.242L52.972.879Z" clip-rule="evenodd"/></mask><path fill="#31C3BD" d="M48.73.879 47.314-.536 48.729.88Zm4.242 0-1.414 1.414L52.972.879Zm-21.24 16.998-1.415 1.414 1.414 1.414 1.414-1.414-1.414-1.414Zm-17-16.998L13.32 2.293 14.733.879Zm-4.242 0 1.414 1.414L10.49.879ZM.879 10.49l1.414 1.414L.879 10.49Zm0 4.242-1.415 1.415L.88 14.733ZM17.877 31.73l1.414 1.414 1.414-1.414-1.414-1.414-1.414 1.414Zm-16.998 17-1.415-1.414L.88 48.729Zm0 4.243-1.415 1.414L.88 52.972Zm9.612 9.612 1.414-1.414-1.414 1.414Zm4.242 0L13.32 61.17l1.414 1.414Zm16.998-16.998 1.414-1.414-1.414-1.415-1.414 1.415 1.414 1.414ZM48.73 62.584l1.415-1.414-1.415 1.414ZM45.586 31.73l-1.414-1.414-1.415 1.414 1.415 1.414 1.414-1.414Zm16.998-16.998L61.17 13.32l1.414 1.414Zm0-4.242-1.414 1.414 1.414-1.414Zm-12.44-8.198a1 1 0 0 1 1.414 0l2.828-2.829a5 5 0 0 0-7.071 0l2.829 2.829ZM33.145 19.29 50.144 2.293 47.315-.536 30.317 16.462l2.828 2.829ZM13.318 2.293 30.317 19.29l2.828-2.829L16.147-.536 13.32 2.293Zm-1.414 0a1 1 0 0 1 1.414 0l2.829-2.829a5 5 0 0 0-7.072 0l2.829 2.829Zm-9.612 9.612 9.612-9.612L9.076-.536-.536 9.076l2.829 2.829Zm0 1.414a1 1 0 0 1 0-1.414L-.536 9.076a5 5 0 0 0 0 7.072l2.829-2.829ZM19.29 30.317 2.293 13.319l-2.829 2.829 16.998 16.997 2.829-2.828ZM2.293 50.144 19.29 33.145l-2.829-2.829L-.536 47.315l2.829 2.829Zm0 1.414a1 1 0 0 1 0-1.414l-2.829-2.829a5 5 0 0 0 0 7.071l2.829-2.828Zm9.612 9.612-9.612-9.612-2.829 2.828 9.612 9.612 2.829-2.828Zm1.414 0a1 1 0 0 1-1.414 0l-2.829 2.828a5 5 0 0 0 7.072 0l-2.829-2.828Zm16.998-16.998L13.319 61.17l2.829 2.828L33.145 47l-2.828-2.828ZM50.144 61.17 33.145 44.172 30.316 47l16.998 16.998 2.829-2.828Zm1.414 0a1 1 0 0 1-1.414 0l-2.829 2.828a5 5 0 0 0 7.071 0l-2.828-2.828Zm9.612-9.612-9.612 9.612 2.828 2.828 9.612-9.612-2.828-2.828Zm0-1.414a1 1 0 0 1 0 1.414l2.828 2.828a5 5 0 0 0 0-7.071l-2.828 2.829ZM44.172 33.145 61.17 50.144l2.828-2.829L47 30.317l-2.828 2.828ZM61.17 13.318 44.172 30.317 47 33.145l16.998-16.998-2.828-2.828Zm0-1.414a1 1 0 0 1 0 1.414l2.828 2.829a5 5 0 0 0 0-7.072l-2.828 2.829Zm-9.612-9.612 9.612 9.612 2.828-2.829-9.612-9.612-2.828 2.829Z" mask="url(#a)"/></svg>